<svg xmlns="http://www.w3.org/2000/svg" xmlns:xlink="http://www.w3.org/1999/xlink" viewBox="0 0 572.04 578.86"><defs><style>.cls-1{fill:url(#linear-gradient);}.cls-2{fill:#fff;stroke:#242424;stroke-miterlimit:10;stroke-width:18px;}</style><linearGradient id="linear-gradient" x1="544.46" y1="547.87" x2="27.58" y2="31" gradientUnits="userSpaceOnUse"><stop offset="0" stop-color="#063"/><stop offset="1" stop-color="#3aaa35"/></linearGradient></defs><g id="Layer_2" data-name="Layer 2"><g id="Layer_1-2" data-name="Layer 1"><path class="cls-1" d="M572,100V478.86a100,100,0,0,1-100,100H100a100,100,0,0,1-100-100V100A100,100,0,0,1,100,0H472A100,100,0,0,1,572,100Z"/><path class="cls-2" d="M491.14,233.33a102.58,102.58,0,0,1-66.82,96.16,10.2,10.2,0,0,0-6.66,9.55v125c0,16.11-58.94,29.19-131.64,29.19s-131.64-13.08-131.64-29.19V330.63A102.57,102.57,0,0,1,81,228.74c1.78-53.19,47.91-98.34,101.11-99a102.45,102.45,0,0,1,35.71,5.87,10,10,0,0,0,11.72-3.91A102.57,102.57,0,0,1,398.19,128a9.93,9.93,0,0,0,6.5,4A102.57,102.57,0,0,1,491.14,233.33Z"/></g></g></svg>