<svg xmlns="http://www.w3.org/2000/svg" height="500px" width="1500px" xmlns:xlink="http://www.w3.org/1999/xlink" viewBox="0 0 1736.57 578.86"><defs><style>.cls-1{fill:#242424;}.cls-2{fill:url(#linear-gradient);}.cls-3{fill:#fff;stroke:#242424;stroke-miterlimit:10;stroke-width:18px;}</style><linearGradient id="linear-gradient" x1="544.46" y1="547.87" x2="27.58" y2="31" gradientUnits="userSpaceOnUse"><stop offset="0" stop-color="#063"/><stop offset="1" stop-color="#3aaa35"/></linearGradient></defs><g id="Layer_2" data-name="Layer 2"><g id="Layer_1-2" data-name="Layer 1"><path class="cls-1" d="M1733.7,378c0-51.88-46.12-72.25-78.78-72.25H1568.8a10,10,0,0,0-10,10V529.41a10,10,0,0,0,10,10h30a10,10,0,0,0,10-10V460.93a10,10,0,0,1,10-9.95h3.88a10,10,0,0,1,8.64,5l45,78.38a10,10,0,0,0,8.64,5h31.58a10,10,0,0,0,8.63-14.93l-39.53-68.6a10,10,0,0,1,4.28-13.92C1705.4,434.41,1733.7,415.58,1733.7,378Zm-70,29.85h-45.3a10,10,0,0,1-10-10V358.46a10,10,0,0,1,10-10h39.07c.32,0,.64,0,1-.05,3-.29,20.85-.77,20.85,29.7,0,29.78-11.92,30-14.4,29.73A9.45,9.45,0,0,0,1663.67,407.81Z"/><path class="cls-1" d="M1519.88,315.67v20.66a10,10,0,0,1-10,10h-68.09a10,10,0,0,0-9.95,9.95v34.29a10,10,0,0,0,9.95,10h57.93a10,10,0,0,1,10,10v20.69a10,10,0,0,1-10,9.95h-57.93a10,10,0,0,0-9.95,10v37.65a10,10,0,0,0,9.95,9.95h68.09a10,10,0,0,1,10,10v20.71a10,10,0,0,1-10,10H1391.08a10,10,0,0,1-9.95-10V315.67a10,10,0,0,1,9.95-10h118.85A10,10,0,0,1,1519.88,315.67Z"/><path class="cls-1" d="M1252.55,305.71c-35.62,0-79.18,0-98.42,0a10,10,0,0,0-10,10v213.6a10,10,0,0,0,10,10h95c43.46,0,99.84-39,99.84-117.35S1299.76,305.74,1252.55,305.71Zm-10.26,189.45h-37.41a10,10,0,0,1-10-10V359.63a10,10,0,0,1,10-9.95h37.51c31.45,0,56.18,25.71,56.18,72.74S1272.85,495.16,1242.29,495.16Z"/><path class="cls-1" d="M897.06,315.64V529.29a10,10,0,0,0,10,10h30.85a10,10,0,0,0,10-10V419.86c0-9.85,12.77-13.72,18.24-5.52l80.35,120.49a9.94,9.94,0,0,0,8.28,4.44h35.51a10,10,0,0,0,10-10V315.67a10,10,0,0,0-10-10h-30.86a10,10,0,0,0-9.95,10V425.24c0,9.85-12.78,13.72-18.24,5.52L950.76,310.12a10,10,0,0,0-8.29-4.43H907A9.94,9.94,0,0,0,897.06,315.64Z"/><rect class="cls-1" x="805.78" y="305.69" width="47.47" height="240.28" rx="9.96"/><path class="cls-1" d="M639.59,305.69H765.23a10,10,0,0,1,9.95,10v20.51a10,10,0,0,1-9.95,9.95h-78a10,10,0,0,0-10,10v34.28a10,10,0,0,0,10,10h54.46a10,10,0,0,1,10,10V430.9a10,10,0,0,1-10,10H687.23a10,10,0,0,0-10,10v78.39a10,10,0,0,1-9.95,10H639.59a10,10,0,0,1-10-10V315.65A10,10,0,0,1,639.59,305.69Z"/><path class="cls-1" d="M1736.57,41.36V62.68a10,10,0,0,1-10,9.95L1655,72.27a10,10,0,0,0-10,10l.34,37.55a10,10,0,0,0,10,9.86l60.73-.29a10,10,0,0,1,10,9.95v20.66a10,10,0,0,1-10,9.95h-60.8a10,10,0,0,0-10,9.95V221.5a9.94,9.94,0,0,0,10,9.95h71.35a10,10,0,0,1,10,10V262a10,10,0,0,1-10,10H1604.36a10,10,0,0,1-10-9.94l-.24-220.63a10,10,0,0,1,9.95-10h122.51A10,10,0,0,1,1736.57,41.36Z"/><path class="cls-1" d="M1499,31.54l-101.12,0a10,10,0,0,0-9.95,10V261.72a10,10,0,0,0,9.95,10h27.67a10,10,0,0,0,10-10V190.11a10,10,0,0,1,10-10h46.76a8.47,8.47,0,0,0,1.13-.07c7-.79,70.47-9.79,70.47-74.17,0-63.89-56.51-73.37-63.51-74.3A9.45,9.45,0,0,0,1499,31.54Zm-14.5,104.84h-35.76a10,10,0,0,1-10-10V85.54a10,10,0,0,1,10-10h35.89l.57,0c2.58-.17,24.54-.68,24.54,30.41s-22.07,30.58-24.67,30.42A5.43,5.43,0,0,0,1484.45,136.38Z"/><rect class="cls-1" x="1293.03" y="31.46" width="47.47" height="240.28" rx="9.95"/><path class="cls-1" d="M1200.83,106.05H1239a10,10,0,0,0,9.16-13.86c-9.55-22.62-37-65-108.84-65-93.76,0-121.58,76.88-121.58,124.48,0,46.29,29.93,120.27,123.82,120.27,68.92-1,99.3-40.64,108.21-64.61a9.94,9.94,0,0,0-9.35-13.34l-39.18,0a10,10,0,0,0-8.67,5.07c-5.25,9.15-20,27.59-54.17,28.48-45.5,1.18-68.57-40.09-68.57-77.94,0-42.06,29.14-76.09,70.68-76.09,31.41,0,46.38,18.63,51.82,27.71A10,10,0,0,0,1200.83,106.05Z"/><path class="cls-1" d="M988.81,41.36V62.68a10,10,0,0,1-10,9.95l-71.62-.36a10,10,0,0,0-10,10l.34,37.55a10,10,0,0,0,10,9.86l60.73-.29a9.94,9.94,0,0,1,10,9.95v20.66a9.94,9.94,0,0,1-10,9.95h-60.8a10,10,0,0,0-10,9.95V221.5a9.94,9.94,0,0,0,10,9.95h71.35a10,10,0,0,1,9.95,10V262a10,10,0,0,1-9.95,10H856.6a10,10,0,0,1-10-9.94L846.4,41.37a10,10,0,0,1,10-10h122.5A9.94,9.94,0,0,1,988.81,41.36Z"/><path class="cls-1" d="M809.21,105.79c0-53.41-47.48-74.38-81.1-74.38h-89a10,10,0,0,0-9.95,10V262a10,10,0,0,0,9.95,10h31.52a10,10,0,0,0,10-10V190.9a10,10,0,0,1,10-10h4.47a10,10,0,0,1,8.63,5l46.48,81a10,10,0,0,0,8.63,5H792A10,10,0,0,0,800.61,257l-41.1-71.34a9.93,9.93,0,0,1,4.28-13.92C779.74,164.12,809.21,144.74,809.21,105.79Zm-72.07,30.72H690.19a10,10,0,0,1-10-10V85.41a10,10,0,0,1,10-10h40.56c.3,0,.6,0,.9,0,2.93-.3,21.51-1,21.51,30.57,0,30.73-12.33,30.89-14.85,30.6A9.18,9.18,0,0,0,737.14,136.51Z"/><path class="cls-2" d="M572,100V478.86a100,100,0,0,1-100,100H100a100,100,0,0,1-100-100V100A100,100,0,0,1,100,0H472A100,100,0,0,1,572,100Z"/><path class="cls-3" d="M491.14,233.33a102.58,102.58,0,0,1-66.82,96.16,10.2,10.2,0,0,0-6.66,9.55v125c0,16.11-58.94,29.19-131.64,29.19s-131.64-13.08-131.64-29.19V330.63A102.57,102.57,0,0,1,81,228.74c1.78-53.19,47.91-98.34,101.11-99a102.45,102.45,0,0,1,35.71,5.87,10,10,0,0,0,11.72-3.91A102.57,102.57,0,0,1,398.19,128a9.93,9.93,0,0,0,6.5,4A102.57,102.57,0,0,1,491.14,233.33Z"/></g></g></svg>